<svg viewBox="0 0 16 17" width="24" height="24" fill="#fff" xmlns="http://www.w3.org/2000/svg"><g opacity="0.5"><path d="M2.75 1.5C2.3125 1.5 2 1.1875 2 0.75C2 0.34375 2.3125 0 2.75 0H6C7.5 0 8.75 1.25 8.75 2.75V13.4688L11.4688 10.75C11.75 10.4375 12.2188 10.4375 12.5 10.75C12.8125 11.0312 12.8125 11.5 12.5 11.7812L8.53125 15.7812C8.21875 16.0938 7.75 16.0938 7.46875 15.7812L3.46875 11.7812C3.15625 11.5 3.15625 11.0312 3.46875 10.75C3.75 10.4375 4.21875 10.4375 4.5 10.75L7.21875 13.4688L7.25 2.75C7.25 2.0625 6.6875 1.5 6 1.5H2.75Z"/></g></svg>