<svg width="40" height="33" viewBox="0 0 40 33" fill="none" xmlns="http://www.w3.org/2000/svg">
<path opacity="0.75" d="M27.8125 2.81246L23 14.0625H30C30.8125 14.0625 31.5625 14.5625 31.875 15.3125C32.125 16.125 31.9375 17 31.3125 17.5625L15.3125 31.5625C14.5625 32.125 13.5625 32.1875 12.8125 31.625C12.0625 31.125 11.75 30.125 12.125 29.25L16.9375 18H10C9.12501 18 8.37501 17.5 8.12501 16.75C7.81251 15.9375 8.00001 15.0625 8.62501 14.5L24.625 0.499957C25.375 -0.0625434 26.375 -0.125043 27.125 0.437457C27.875 0.937457 28.1875 1.93746 27.8125 2.81246Z" fill="url(#paint0_linear_1601_1803)"/>
<defs>
<linearGradient id="paint0_linear_1601_1803" x1="15.4286" y1="32" x2="8" y2="2.5" gradientUnits="userSpaceOnUse">
<stop stop-color="#F45397" stop-opacity="0.13"/>
<stop offset="1" stop-color="#F45397"/>
</linearGradient>
</defs>
</svg>
