<svg width="40" height="33" viewBox="0 0 40 33" fill="none" xmlns="http://www.w3.org/2000/svg">
<path d="M8.49988 5.8125C8.87488 4.625 9.99988 3.875 11.2499 3.875H14.2499C16.0624 3.875 17.5624 5.3125 17.5624 7.125C17.5624 8.3125 16.9374 9.4375 15.8749 10L14.2499 10.9375C14.1874 11.625 13.6249 12.1875 12.9999 12.1875C12.3124 12.1875 11.7499 11.625 11.7499 10.9375V10.25C11.7499 9.8125 11.9374 9.375 12.3749 9.1875L14.6874 7.8125C14.8749 7.6875 15.0624 7.4375 15.0624 7.125C15.0624 6.6875 14.6874 6.375 14.2499 6.375H11.2499C11.0624 6.375 10.8749 6.5 10.8124 6.625V6.6875C10.5624 7.375 9.87488 7.6875 9.24988 7.4375C8.56238 7.25 8.24988 6.5 8.43738 5.875L8.49988 5.8125ZM11.3124 15.5C11.2499 14.9375 11.5624 14.3125 12.1249 14C12.6249 13.6875 13.3124 13.6875 13.8124 14C14.3749 14.3125 14.6874 14.9375 14.6249 15.5C14.6874 16.125 14.3749 16.75 13.8124 17.0625C13.3124 17.375 12.6249 17.375 12.1249 17.0625C11.5624 16.75 11.2499 16.125 11.3124 15.5ZM15.9999 24V22H21.9999C25.3124 22 27.9999 19.3125 27.9999 16V8H35.9999C38.1874 8 39.9999 9.8125 39.9999 12V24C39.9999 26.25 38.1874 28 35.9999 28H33.9999V31C33.9999 31.4375 33.7499 31.75 33.4374 31.9375C33.0624 32.0625 32.6874 32.0625 32.3749 31.8125L27.3124 28H19.9999C17.7499 28 15.9999 26.25 15.9999 24Z" fill="url(#paint0_linear_1601_1791)"/>
<path opacity="0.4" d="M4 0H22C24.1875 0 26 1.8125 26 4V16C26 18.25 24.1875 20 22 20H12.625L7.5625 23.8125C7.25 24.0625 6.875 24.0625 6.5 23.9375C6.1875 23.75 6 23.4375 6 23V20H4C1.75 20 0 18.25 0 16V4C0 1.8125 1.75 0 4 0ZM8.5 5.8125L8.4375 5.875C8.25 6.5 8.5625 7.25 9.25 7.4375C9.875 7.6875 10.5625 7.375 10.8125 6.6875V6.625C10.875 6.5 11.0625 6.375 11.25 6.375H14.25C14.6875 6.375 15.0625 6.6875 15.0625 7.125C15.0625 7.4375 14.875 7.6875 14.6875 7.8125L12.375 9.1875C11.9375 9.375 11.75 9.8125 11.75 10.25V10.9375C11.75 11.625 12.3125 12.1875 13 12.1875C13.625 12.1875 14.1875 11.625 14.25 10.9375L15.875 10C16.9375 9.4375 17.5625 8.3125 17.5625 7.125C17.5625 5.3125 16.0625 3.875 14.25 3.875H11.25C10 3.875 8.875 4.625 8.5 5.8125ZM11.3125 15.5C11.25 16.125 11.5625 16.75 12.125 17.0625C12.625 17.375 13.3125 17.375 13.8125 17.0625C14.375 16.75 14.6875 16.125 14.625 15.5C14.6875 14.9375 14.375 14.3125 13.8125 14C13.3125 13.6875 12.625 13.6875 12.125 14C11.5625 14.3125 11.25 14.9375 11.3125 15.5Z" fill="url(#paint1_linear_1601_1791)"/>
<defs>
<linearGradient id="paint0_linear_1601_1791" x1="22" y1="32" x2="6" y2="5.5" gradientUnits="userSpaceOnUse">
<stop stop-color="#3C2EDD" stop-opacity="0.2"/>
<stop offset="1" stop-color="#3C2EDD"/>
</linearGradient>
<linearGradient id="paint1_linear_1601_1791" x1="11.5" y1="24" x2="2" y2="5.43005e-07" gradientUnits="userSpaceOnUse">
<stop stop-color="#3C2EDD" stop-opacity="0.11"/>
<stop offset="1" stop-color="#3C2EDD"/>
</linearGradient>
</defs>
</svg>
