<svg width="40" height="32" viewBox="0 0 40 32" fill="none" xmlns="http://www.w3.org/2000/svg">
<path d="M20 18C18.5625 18 17.25 17.25 16.5 16C15.8125 14.8125 15.8125 13.25 16.5 12C17.25 10.8125 18.5625 10 20 10C21.375 10 22.6875 10.8125 23.4375 12C24.125 13.25 24.125 14.8125 23.4375 16C22.6875 17.25 21.375 18 20 18ZM18 20H22C24.75 20 27 22.25 27 25C27 25.5625 26.5 26 26 26H14C13.4375 26 13 25.5625 13 25C13 22.25 15.1875 20 18 20Z" fill="url(#paint0_linear_1601_1800)"/>
<path opacity="0.4" d="M12 0H28C30.1875 0 32 1.8125 32 4V28C32 30.25 30.1875 32 28 32H12C9.75 32 8 30.25 8 28V4C8 1.8125 9.75 0 12 0ZM18 20C15.1875 20 13 22.25 13 25C13 25.5625 13.4375 26 14 26H26C26.5 26 27 25.5625 27 25C27 22.25 24.75 20 22 20H18ZM16 14C16 15.4375 16.75 16.75 18 17.5C19.1875 18.1875 20.75 18.1875 22 17.5C23.1875 16.75 24 15.4375 24 14C24 12.625 23.1875 11.3125 22 10.5625C20.75 9.875 19.1875 9.875 18 10.5625C16.75 11.3125 16 12.625 16 14ZM17 4C16.4375 4 16 4.5 16 5C16 5.5625 16.4375 6 17 6H23C23.5 6 24 5.5625 24 5C24 4.5 23.5 4 23 4H17Z" fill="url(#paint1_linear_1601_1800)"/>
<defs>
<linearGradient id="paint0_linear_1601_1800" x1="21.5" y1="27.5" x2="16" y2="8" gradientUnits="userSpaceOnUse">
<stop stop-color="#3C2EDD" stop-opacity="0.38"/>
<stop offset="1" stop-color="#3C2EDD"/>
</linearGradient>
<linearGradient id="paint1_linear_1601_1800" x1="15.4286" y1="32" x2="8" y2="-2.5" gradientUnits="userSpaceOnUse">
<stop stop-color="#3C2EDD" stop-opacity="0.08"/>
<stop offset="1" stop-color="#3C2EDD"/>
</linearGradient>
</defs>
</svg>
