<svg width="40" height="32" viewBox="0 0 40 32" fill="none" xmlns="http://www.w3.org/2000/svg">
<path d="M13 13H14C15.0625 13 16 13.9375 16 15V22C16 23.125 15.0625 24 14 24H13C10.75 24 9 22.25 9 20V17C9 14.8125 10.75 13 13 13ZM27 13C29.1875 13 31 14.8125 31 17V20C31 22.25 29.1875 24 27 24H26C24.875 24 24 23.125 24 22V15C24 13.9375 24.875 13 26 13H27Z" fill="url(#paint0_linear_1601_1806)"/>
<path opacity="0.4" d="M7 16V18.5C7 19.375 6.3125 20 5.5 20C4.625 20 4 19.375 4 18.5V16C4 7.1875 11.125 0 20 0C28.8125 0 36 7.1875 36 16V25.0625C36 28.0625 33.5 30.5625 30.5 30.5625L23.5625 30.5C23.0625 31.4375 22.0625 32 21 32H19C17.3125 32 16 30.6875 16 29C16 27.375 17.3125 26 19 26H21C22.0625 26 23.0625 26.625 23.5625 27.5L30.5 27.5625C31.875 27.5625 33 26.4375 33 25.0625V16C33 8.875 27.125 3 20 3C12.8125 3 7 8.875 7 16Z" fill="url(#paint1_linear_1601_1806)"/>
<defs>
<linearGradient id="paint0_linear_1601_1806" x1="16" y1="26" x2="9" y2="8.5" gradientUnits="userSpaceOnUse">
<stop stop-color="#F45397" stop-opacity="0.33"/>
<stop offset="1" stop-color="#F45397"/>
</linearGradient>
<linearGradient id="paint1_linear_1601_1806" x1="15.4286" y1="32" x2="10" y2="-1" gradientUnits="userSpaceOnUse">
<stop stop-color="#F45397" stop-opacity="0.32"/>
<stop offset="1" stop-color="#F45397"/>
</linearGradient>
</defs>
</svg>
