<svg width="40" height="32" viewBox="0 0 40 32" fill="none" xmlns="http://www.w3.org/2000/svg">
<path d="M10 26.625V3.5C10 2.6875 10.625 2 11.4375 2C11.75 2 12.125 2.1875 12.375 2.375L29.5 17.625C29.8125 17.875 30 18.25 30 18.625C30 19.4375 29.375 20.0625 28.5625 20.0625H19L12.375 27.5625C12.125 27.875 11.75 28 11.375 28C10.5625 28 10 27.4375 10 26.625Z" fill="url(#paint0_linear_1601_1794)"/>
<path opacity="0.4" d="M17.5625 21.625L19 20H21.1875L24.75 27.125C25.25 28.125 24.875 29.3125 23.875 29.8125C22.875 30.3125 21.6875 29.9375 21.1875 28.9375L17.5625 21.625Z" fill="url(#paint1_linear_1601_1794)"/>
<defs>
<linearGradient id="paint0_linear_1601_1794" x1="14.5" y1="24.5" x2="5.5" y2="2" gradientUnits="userSpaceOnUse">
<stop stop-color="#3C2EDD" stop-opacity="0.38"/>
<stop offset="1" stop-color="#3C2EDD"/>
</linearGradient>
<linearGradient id="paint1_linear_1601_1794" x1="15.4286" y1="32" x2="0.571429" y2="-11.0476" gradientUnits="userSpaceOnUse">
<stop stop-color="#3C2EDD" stop-opacity="0.38"/>
<stop offset="1" stop-color="#3C2EDD"/>
</linearGradient>
</defs>
</svg>
