<svg width="40" height="32" viewBox="0 0 40 32" fill="none" xmlns="http://www.w3.org/2000/svg">
<path d="M20 4.5V30C20 30 14.1875 28 11 28C8.5625 28 5.4375 28.8125 3.5 29.4375C2.75 29.6875 2 29.125 2 28.4375V5.25C2 4.5 2.375 3.8125 3.125 3.5625C4.875 2.875 7.8125 2 11 2C15 2 19 3.5 20 4.5Z" fill="url(#paint0_linear_1601_1797)"/>
<path opacity="0.4" d="M20 4.5C21 3.5 25 2 29 2C32.125 2 35.0625 2.875 36.8125 3.5625C37.5625 3.8125 38 4.5 38 5.25V28.4375C38 29.125 37.1875 29.6875 36.4375 29.4375C34.5 28.8125 31.375 28 29 28C25.75 28 20 30 20 30V4.5Z" fill="url(#paint1_linear_1601_1797)"/>
<defs>
<linearGradient id="paint0_linear_1601_1797" x1="15.4286" y1="32" x2="6" y2="0.5" gradientUnits="userSpaceOnUse">
<stop stop-color="#3AC3FF" stop-opacity="0.37"/>
<stop offset="1" stop-color="#3AC3FF"/>
</linearGradient>
<linearGradient id="paint1_linear_1601_1797" x1="31.5" y1="24.5" x2="17.5" y2="3.5" gradientUnits="userSpaceOnUse">
<stop stop-color="#3AC3FF" stop-opacity="0.46"/>
<stop offset="1" stop-color="#3AC3FF"/>
</linearGradient>
</defs>
</svg>
