<svg xmlns="http://www.w3.org/2000/svg" xmlns:xlink="http://www.w3.org/1999/xlink" viewBox="0 0 808 808" preserveAspectRatio="xMidYMid meet" style="width: 100%; height: 100%; transform: translate3d(0px, 0px, 0px); content-visibility: visible;"><defs><clipPath id="__lottie_element_64"><rect width="808" height="808" x="0" y="0"/></clipPath></defs><g clip-path="url(#__lottie_element_64)"><g transform="matrix(1,0,0,1,404,404)" opacity="0.009512803472610942" style="display: block;"><path fill-rule="evenodd" fill="rgb(0,0,0)" fill-opacity="0" d=" M404,-404 C404,-404 404,404 404,404 C404,404 -404,404 -404,404 C-404,404 -404,-404 -404,-404 C-404,-404 404,-404 404,-404z M0,-382.220703125 C210.94760131835938,-382.220703125 382.220703125,-210.94760131835938 382.220703125,0 C382.220703125,210.94760131835938 210.94760131835938,382.220703125 0,382.220703125 C-210.94760131835938,382.220703125 -382.220703125,210.94760131835938 -382.220703125,0 C-382.220703125,-210.94760131835938 -210.94760131835938,-382.220703125 0,-382.220703125z"/><path stroke-linecap="butt" stroke-linejoin="miter" fill-opacity="0" stroke-miterlimit="4" stroke="rgb(244,83,151)" stroke-opacity="1" stroke-width="5" d=" M0,-382.220703125 C210.94760131835938,-382.220703125 382.220703125,-210.94760131835938 382.220703125,0 C382.220703125,210.94760131835938 210.94760131835938,382.220703125 0,382.220703125 C-210.94760131835938,382.220703125 -382.220703125,210.94760131835938 -382.220703125,0 C-382.220703125,-210.94760131835938 -210.94760131835938,-382.220703125 0,-382.220703125z"/><path fill-rule="evenodd" fill="rgb(244,83,151)" fill-opacity="0.14000000059604645" d=" M0,-382.220703125 C210.94760131835938,-382.220703125 382.220703125,-210.94760131835938 382.220703125,0 C382.220703125,210.94760131835938 210.94760131835938,382.220703125 0,382.220703125 C-210.94760131835938,382.220703125 -382.220703125,210.94760131835938 -382.220703125,0 C-382.220703125,-210.94760131835938 -210.94760131835938,-382.220703125 0,-382.220703125z"/></g><g transform="matrix(1,0,0,1,404,404)" opacity="0.09715833619046357" style="display: block;"><path fill-rule="evenodd" fill="rgb(0,0,0)" fill-opacity="0" d=" M404,-404 C404,-404 404,404 404,404 C404,404 -404,404 -404,404 C-404,404 -404,-404 -404,-404 C-404,-404 404,-404 404,-404z M0,-302.3525085449219 C166.86834716796875,-302.3525085449219 302.3525085449219,-166.86834716796875 302.3525085449219,0 C302.3525085449219,166.86834716796875 166.86834716796875,302.3525085449219 0,302.3525085449219 C-166.86834716796875,302.3525085449219 -302.3525085449219,166.86834716796875 -302.3525085449219,0 C-302.3525085449219,-166.86834716796875 -166.86834716796875,-302.3525085449219 0,-302.3525085449219z"/><path stroke-linecap="butt" stroke-linejoin="miter" fill-opacity="0" stroke-miterlimit="4" stroke="rgb(244,83,151)" stroke-opacity="1" stroke-width="5" d=" M0,-302.3525085449219 C166.86834716796875,-302.3525085449219 302.3525085449219,-166.86834716796875 302.3525085449219,0 C302.3525085449219,166.86834716796875 166.86834716796875,302.3525085449219 0,302.3525085449219 C-166.86834716796875,302.3525085449219 -302.3525085449219,166.86834716796875 -302.3525085449219,0 C-302.3525085449219,-166.86834716796875 -166.86834716796875,-302.3525085449219 0,-302.3525085449219z"/><path fill-rule="evenodd" fill="rgb(244,83,151)" fill-opacity="0.14000000059604645" d=" M0,-302.3525085449219 C166.86834716796875,-302.3525085449219 302.3525085449219,-166.86834716796875 302.3525085449219,0 C302.3525085449219,166.86834716796875 166.86834716796875,302.3525085449219 0,302.3525085449219 C-166.86834716796875,302.3525085449219 -302.3525085449219,166.86834716796875 -302.3525085449219,0 C-302.3525085449219,-166.86834716796875 -166.86834716796875,-302.3525085449219 0,-302.3525085449219z"/></g><g transform="matrix(1,0,0,1,404,404)" opacity="0.3754533407631819" style="display: block;"><path fill-rule="evenodd" fill="rgb(0,0,0)" fill-opacity="0" d=" M404,-404 C404,-404 404,404 404,404 C404,404 -404,404 -404,404 C-404,404 -404,-404 -404,-404 C-404,-404 404,-404 404,-404z M0,-226.40933227539062 C124.95531463623047,-226.40933227539062 226.40933227539062,-124.95531463623047 226.40933227539062,0 C226.40933227539062,124.95531463623047 124.95531463623047,226.40933227539062 0,226.40933227539062 C-124.95531463623047,226.40933227539062 -226.40933227539062,124.95531463623047 -226.40933227539062,0 C-226.40933227539062,-124.95531463623047 -124.95531463623047,-226.40933227539062 0,-226.40933227539062z"/><path stroke-linecap="butt" stroke-linejoin="miter" fill-opacity="0" stroke-miterlimit="4" stroke="rgb(244,83,151)" stroke-opacity="1" stroke-width="5" d=" M0,-226.40933227539062 C124.95531463623047,-226.40933227539062 226.40933227539062,-124.95531463623047 226.40933227539062,0 C226.40933227539062,124.95531463623047 124.95531463623047,226.40933227539062 0,226.40933227539062 C-124.95531463623047,226.40933227539062 -226.40933227539062,124.95531463623047 -226.40933227539062,0 C-226.40933227539062,-124.95531463623047 -124.95531463623047,-226.40933227539062 0,-226.40933227539062z"/><path fill-rule="evenodd" fill="rgb(244,83,151)" fill-opacity="0.14000000059604645" d=" M0,-226.40933227539062 C124.95531463623047,-226.40933227539062 226.40933227539062,-124.95531463623047 226.40933227539062,0 C226.40933227539062,124.95531463623047 124.95531463623047,226.40933227539062 0,226.40933227539062 C-124.95531463623047,226.40933227539062 -226.40933227539062,124.95531463623047 -226.40933227539062,0 C-226.40933227539062,-124.95531463623047 -124.95531463623047,-226.40933227539062 0,-226.40933227539062z"/></g><g transform="matrix(1,0,0,1,404,404)" opacity="0.7565899903324721" style="display: block;"><path fill-rule="evenodd" fill="rgb(0,0,0)" fill-opacity="0" d=" M404,-404 C404,-404 404,404 404,404 C404,404 -404,404 -404,404 C-404,404 -404,-404 -404,-404 C-404,-404 404,-404 404,-404z M0,-146.40933227539062 C80.80331420898438,-146.40933227539062 146.40933227539062,-80.80331420898438 146.40933227539062,0 C146.40933227539062,80.80331420898438 80.80331420898438,146.40933227539062 0,146.40933227539062 C-80.80331420898438,146.40933227539062 -146.40933227539062,80.80331420898438 -146.40933227539062,0 C-146.40933227539062,-80.80331420898438 -80.80331420898438,-146.40933227539062 0,-146.40933227539062z"/><path stroke-linecap="butt" stroke-linejoin="miter" fill-opacity="0" stroke-miterlimit="4" stroke="rgb(244,83,151)" stroke-opacity="1" stroke-width="5" d=" M0,-146.40933227539062 C80.80331420898438,-146.40933227539062 146.40933227539062,-80.80331420898438 146.40933227539062,0 C146.40933227539062,80.80331420898438 80.80331420898438,146.40933227539062 0,146.40933227539062 C-80.80331420898438,146.40933227539062 -146.40933227539062,80.80331420898438 -146.40933227539062,0 C-146.40933227539062,-80.80331420898438 -80.80331420898438,-146.40933227539062 0,-146.40933227539062z"/><path fill-rule="evenodd" fill="rgb(244,83,151)" fill-opacity="0.14000000059604645" d=" M0,-146.40933227539062 C80.80331420898438,-146.40933227539062 146.40933227539062,-80.80331420898438 146.40933227539062,0 C146.40933227539062,80.80331420898438 80.80331420898438,146.40933227539062 0,146.40933227539062 C-80.80331420898438,146.40933227539062 -146.40933227539062,80.80331420898438 -146.40933227539062,0 C-146.40933227539062,-80.80331420898438 -80.80331420898438,-146.40933227539062 0,-146.40933227539062z"/></g><g transform="matrix(1,0,0,1,404,404)" opacity="1" style="display: block;"><path fill-rule="evenodd" fill="rgb(0,0,0)" fill-opacity="0" d=" M404,-404 C404,-404 404,404 404,404 C404,404 -404,404 -404,404 C-404,404 -404,-404 -404,-404 C-404,-404 404,-404 404,-404z M0,-68.86156463623047 C38.00469970703125,-68.86156463623047 68.86156463623047,-38.00469970703125 68.86156463623047,0 C68.86156463623047,38.00469970703125 38.00469970703125,68.86156463623047 0,68.86156463623047 C-38.00469970703125,68.86156463623047 -68.86156463623047,38.00469970703125 -68.86156463623047,0 C-68.86156463623047,-38.00469970703125 -38.00469970703125,-68.86156463623047 0,-68.86156463623047z"/><path stroke-linecap="butt" stroke-linejoin="miter" fill-opacity="0" stroke-miterlimit="4" stroke="rgb(244,83,151)" stroke-opacity="1" stroke-width="5" d=" M0,-68.86156463623047 C38.00469970703125,-68.86156463623047 68.86156463623047,-38.00469970703125 68.86156463623047,0 C68.86156463623047,38.00469970703125 38.00469970703125,68.86156463623047 0,68.86156463623047 C-38.00469970703125,68.86156463623047 -68.86156463623047,38.00469970703125 -68.86156463623047,0 C-68.86156463623047,-38.00469970703125 -38.00469970703125,-68.86156463623047 0,-68.86156463623047z"/><path fill-rule="evenodd" fill="rgb(244,83,151)" fill-opacity="0.14000000059604645" d=" M0,-68.86156463623047 C38.00469970703125,-68.86156463623047 68.86156463623047,-38.00469970703125 68.86156463623047,0 C68.86156463623047,38.00469970703125 38.00469970703125,68.86156463623047 0,68.86156463623047 C-38.00469970703125,68.86156463623047 -68.86156463623047,38.00469970703125 -68.86156463623047,0 C-68.86156463623047,-38.00469970703125 -38.00469970703125,-68.86156463623047 0,-68.86156463623047z"/></g></g></svg>