<svg width="49" height="48" viewBox="0 0 49 48" fill="none" xmlns="http://www.w3.org/2000/svg">
<path d="M3.33331 0H15.3333C16.9271 0 18.3333 1.40625 18.3333 3V39C18.3333 43.9688 14.3021 48 9.33331 48C4.36456 48 0.333313 43.9688 0.333313 39V3C0.333313 1.40625 1.64581 0 3.33331 0ZM12.3333 6H6.33331V12H12.3333V6ZM6.33331 18V24H12.3333V18H6.33331ZM9.33331 36.75C8.02081 36.75 7.08331 37.7812 7.08331 39C7.08331 40.3125 8.02081 41.25 9.33331 41.25C10.5521 41.25 11.5833 40.3125 11.5833 39C11.5833 37.7812 10.5521 36.75 9.33331 36.75Z" fill="url(#paint0_linear_1524_1240)"/>
<path opacity="0.4" d="M6.33331 6H12.3333V12H6.33331V6ZM16.5521 44.4375C16.6458 44.25 16.6458 44.1562 16.7396 44.0625C17.7708 42.6562 18.3333 40.875 18.3333 39V17.4375L28.3646 7.40625C29.4896 6.28125 31.4583 6.28125 32.5833 7.40625L41.1146 15.9375C42.2396 17.0625 42.2396 18.9375 41.1146 20.1562L18.0521 43.125C17.5833 43.5938 17.1146 44.0625 16.5521 44.4375ZM45.3333 48H17.3958L35.3958 30H45.3333C46.9271 30 48.3333 31.4062 48.3333 33V45C48.3333 46.6875 46.9271 48 45.3333 48ZM12.3333 18V24H6.33331V18H12.3333Z" fill="url(#paint1_linear_1524_1240)"/>
<defs>
<linearGradient id="paint0_linear_1524_1240" x1="9.33331" y1="0" x2="9.33331" y2="48" gradientUnits="userSpaceOnUse">
<stop stop-color="#FFB525"/>
<stop offset="1" stop-color="#FFB525" stop-opacity="0.31"/>
</linearGradient>
<linearGradient id="paint1_linear_1524_1240" x1="27.3333" y1="6" x2="27.3333" y2="48" gradientUnits="userSpaceOnUse">
<stop stop-color="#FFB525"/>
<stop offset="1" stop-color="#FFB525" stop-opacity="0.31"/>
</linearGradient>
</defs>
</svg>
