<svg width="48" height="48" viewBox="0 0 48 48" fill="none" xmlns="http://www.w3.org/2000/svg">
<path d="M24 1.5C24.5625 1.5 24.9375 1.3125 25.4062 0.9375C26.0625 0.5625 26.8125 0 28.5 0C31.3125 0 33.375 4.125 34.6875 8.4375C39.0938 9.28125 42 10.5938 42 12C42 13.6875 38.3438 15.1875 33 15.9375V17.25C33 19.4062 31.3125 21 29.25 21H28.0312C26.5312 21 25.125 20.0625 24.6562 18.5625C24.375 17.9062 23.5312 17.9062 23.25 18.5625C22.7812 20.0625 21.375 21 19.875 21H18.75C16.5938 21 15 19.4062 15 17.25V15.9375C9.5625 15.1875 6 13.6875 6 12C6 10.5938 8.8125 9.28125 13.3125 8.4375C14.625 4.125 16.5938 0 19.5 0C21.1875 0 21.8438 0.5625 22.5 0.9375C22.9688 1.3125 23.3438 1.5 24 1.5ZM28.125 48H19.7812H5.8125C4.21875 48 3 46.7812 3 45.1875C3 39.8438 5.71875 35.1562 9.9375 32.4375L6.09375 22.7812C6 22.5938 6 22.5 6 22.3125C6 21.5625 6.5625 21 7.21875 21H12.75L19.3125 46.0312L22.5 35.0625L20.8125 32.3438C20.25 31.3125 20.9062 30.0938 22.125 30.0938H24H25.7812C27 30.0938 27.6562 31.3125 27.0938 32.3438L25.4062 35.0625L28.5938 46.0312L35.1562 21H40.6875C41.4375 21 42 21.5625 42 22.3125C42 22.5 41.9062 22.5938 41.9062 22.7812L37.9688 32.4375C42.1875 35.1562 45 39.8438 45 45.1875C45 46.7812 43.6875 48 42.0938 48H28.125Z" fill="url(#paint0_linear_1524_1250)"/>
<path opacity="0.4" d="M15 15.9375V17.25C15 19.4062 16.5938 21 18.75 21H19.875C21.375 21 22.7812 20.0625 23.25 18.5625C23.5312 17.9062 24.375 17.9062 24.6562 18.5625C25.125 20.0625 26.5312 21 28.0312 21H29.25C31.3125 21 33 19.4062 33 17.25V15.9375C33.4688 15.8438 33.9375 15.75 34.5 15.6562V17.25C34.5 23.0625 29.7188 27.75 24 27.75C18.1875 27.75 13.5 23.0625 13.5 17.25V15.6562C13.9688 15.75 14.4375 15.8438 15 15.9375Z" fill="url(#paint1_linear_1524_1250)"/>
<defs>
<linearGradient id="paint0_linear_1524_1250" x1="18" y1="58.2857" x2="-1.12569" y2="1.38679" gradientUnits="userSpaceOnUse">
<stop stop-color="#3AC3FF" stop-opacity="0.17"/>
<stop offset="1" stop-color="#3AC3FF"/>
</linearGradient>
<linearGradient id="paint1_linear_1524_1250" x1="18.3611" y1="15.0361" x2="20.6244" y2="27.9665" gradientUnits="userSpaceOnUse">
<stop stop-color="#3AC3FF"/>
<stop offset="1" stop-color="#3AC3FF" stop-opacity="0.39"/>
</linearGradient>
</defs>
</svg>
