<svg width="37" height="48" viewBox="0 0 37 48" fill="none" xmlns="http://www.w3.org/2000/svg">
<g clip-path="url(#clip0_1524_1247)">
<path opacity="0.4" d="M0.666656 6C0.666656 2.71875 3.29166 0 6.66666 0H21.6667V12C21.6667 13.6875 22.9792 15 24.6667 15H36.6667V42C36.6667 45.375 33.9479 48 30.6667 48H6.66666C3.29166 48 0.666656 45.375 0.666656 42V6ZM15.0104 27.0938C15.8542 26.25 15.8542 24.8438 15.0104 24C14.0729 23.0625 12.6667 23.0625 11.8229 24L7.32291 28.4062C6.38541 29.3438 6.38541 30.75 7.32291 31.5938L11.8229 36.0938C12.6667 37.0312 14.0729 37.0312 14.9167 36.0938C15.8542 35.25 15.8542 33.8438 14.9167 32.9062L12.0104 30L14.9167 27.0938H15.0104ZM25.5104 23.9062C24.5729 23.0625 23.1667 23.0625 22.3229 23.9062C21.3854 24.8438 21.3854 26.25 22.3229 27.0938L25.2292 30L22.3229 32.9062C21.3854 33.8438 21.3854 35.25 22.3229 36.0938C23.1667 37.0312 24.5729 37.0312 25.5104 36.0938L30.0104 31.5938C30.8542 30.75 30.8542 29.3438 30.0104 28.4062L25.5104 23.9062Z" fill="url(#paint0_linear_1524_1247)"/>
<path d="M36.6667 15H24.6667C22.9792 15 21.6667 13.6875 21.6667 12V0L36.6667 15ZM15.0104 27.0938H14.9167L12.0104 30L14.9167 32.9062C15.8542 33.8438 15.8542 35.25 14.9167 36.0938C14.0729 37.0312 12.6667 37.0312 11.8229 36.0938L7.32291 31.5938C6.38541 30.75 6.38541 29.3438 7.32291 28.4062L11.8229 24C12.6667 23.0625 14.0729 23.0625 15.0104 24C15.8542 24.8438 15.8542 26.25 15.0104 27.0938ZM25.5104 23.9062L30.0104 28.4062C30.8542 29.3438 30.8542 30.75 30.0104 31.5938L25.5104 36.0938C24.5729 37.0312 23.1667 37.0312 22.3229 36.0938C21.3854 35.25 21.3854 33.8438 22.3229 32.9062L25.2292 30L22.3229 27.0938C21.3854 26.25 21.3854 24.8438 22.3229 23.9062C23.1667 23.0625 24.5729 23.0625 25.5104 23.9062Z" fill="url(#paint1_linear_1524_1247)"/>
</g>
<defs>
<linearGradient id="paint0_linear_1524_1247" x1="3.66666" y1="4" x2="18.6667" y2="54" gradientUnits="userSpaceOnUse">
<stop stop-color="#F45397"/>
<stop offset="1" stop-color="#F45397" stop-opacity="0"/>
</linearGradient>
<linearGradient id="paint1_linear_1524_1247" x1="9.66666" y1="6" x2="23.6667" y2="37" gradientUnits="userSpaceOnUse">
<stop stop-color="#F45397"/>
<stop offset="1" stop-color="#F45397" stop-opacity="0.5"/>
</linearGradient>
<clipPath id="clip0_1524_1247">
<rect width="36" height="48" fill="white" transform="translate(0.666656)"/>
</clipPath>
</defs>
</svg>
