<svg width="141" height="49" viewBox="0 0 141 49" fill="none" xmlns="http://www.w3.org/2000/svg">
<g clip-path="url(#clip0_1322_1562)">
<path fill-rule="evenodd" clip-rule="evenodd" d="M117.276 2.56047C117.081 2.60485 116.942 2.77916 116.942 2.98028V7.07183C116.942 7.34787 117.197 7.55256 117.465 7.49164L128.689 4.94197C128.884 4.89758 129.023 4.72327 129.023 4.52215V0.430608C129.023 0.154561 128.768 -0.0501294 128.5 0.0107934L117.276 2.56047ZM116.942 10.1304C116.942 9.92929 117.081 9.75498 117.276 9.7106L140.581 4.41646C140.849 4.35554 141.104 4.56023 141.104 4.83627V8.92782C141.104 9.12894 140.966 9.30325 140.77 9.34764L117.465 14.6418C117.197 14.7027 116.942 14.498 116.942 14.222V10.1304ZM129.023 14.5365C129.023 14.3354 129.162 14.1611 129.357 14.1167L140.581 11.567C140.849 11.5061 141.104 11.7108 141.104 11.9868V16.0784C141.104 16.2795 140.966 16.4538 140.77 16.4982L129.547 19.0478C129.278 19.1088 129.023 18.9041 129.023 18.628V14.5365Z" fill="#FF5466"/>
<path d="M12.3956 34.6339C12.3956 34.7726 12.462 34.9032 12.5756 34.9823C14.8302 36.5514 17.6999 37.5651 21.2547 37.5651C27.5283 37.5651 30.7981 34.1297 30.7981 30.0072C30.7981 25.732 28.3267 23.6325 23.574 21.5331C20.6083 20.1971 17.8708 19.281 17.8708 17.1434C17.8708 15.5402 19.3916 14.395 22.1292 14.395C24.4177 14.395 26.172 15.0159 27.7065 16.1363C28.0036 16.3532 28.4408 16.1497 28.4408 15.7809V12.1034C28.4408 11.9609 28.371 11.8272 28.2519 11.7498C26.5018 10.6122 24.4001 10.0435 22.0151 10.0435C16.9202 10.0435 13.118 12.7536 13.118 17.1434C13.118 21.3041 16.1978 23.3271 20.1521 25.0067C24.2964 26.7626 26.0834 27.6405 26.0834 30.0072C26.0834 31.6867 24.3725 33.2899 20.9885 33.2899C17.7544 33.2899 15.177 32.1512 13.1505 30.4313C12.8602 30.1849 12.3956 30.3844 12.3956 30.766V34.6339Z" fill="white"/>
<path d="M33.3284 27.4497C33.3284 33.3281 37.8529 37.6415 43.7843 37.6415C46.0635 37.6415 48.2006 37.0349 49.7831 35.8216C49.8859 35.7428 49.9439 35.6193 49.9439 35.4894V32.1373C49.9439 31.7562 49.4766 31.5537 49.1767 31.7874C47.6155 33.0044 45.8749 33.4808 44.0505 33.4808C40.4764 33.4808 37.8529 30.9233 37.8529 27.4497C37.8529 23.9761 40.4764 21.4186 44.0505 21.4186C45.8773 21.4186 47.6202 21.9244 49.183 23.1288C49.4823 23.3595 49.9439 23.1567 49.9439 22.7779V19.4138C49.9439 19.2817 49.8839 19.1564 49.7783 19.0777C48.1963 17.8989 46.0612 17.2579 43.7843 17.2579C37.8529 17.2579 33.3284 21.5713 33.3284 27.4497Z" fill="white"/>
<path d="M53.3242 36.6766C53.3242 36.9144 53.5162 37.1071 53.753 37.1071H57.4201C57.6568 37.1071 57.8488 36.9144 57.8488 36.6766V26.9916C57.8488 23.8234 59.864 21.8385 63.0198 21.8385C63.5202 21.8385 63.9841 21.8751 64.3989 21.9357C64.669 21.9751 64.9208 21.7709 64.9208 21.4969V17.9543C64.9208 17.7491 64.776 17.5756 64.5729 17.5527C64.2786 17.5195 63.8748 17.4869 63.5521 17.4869C60.8145 17.4869 58.7613 18.7466 57.8488 20.7315V18.299C57.8488 18.0613 57.6568 17.8686 57.4201 17.8686H53.753C53.5162 17.8686 53.3242 18.0613 53.3242 18.299V36.6766Z" fill="white"/>
<path d="M70.4206 15.6165C71.8654 15.6165 73.1202 14.4332 73.1202 12.9063C73.1202 11.3795 71.8654 10.1961 70.4206 10.1961C68.9378 10.1961 67.6831 11.3795 67.6831 12.9063C67.6831 14.4332 68.9378 15.6165 70.4206 15.6165ZM68.1393 36.6766C68.1393 36.9144 68.3313 37.1071 68.5681 37.1071H72.2732C72.51 37.1071 72.7019 36.9144 72.7019 36.6766V18.299C72.7019 18.0613 72.51 17.8686 72.2732 17.8686H68.5681C68.3313 17.8686 68.1393 18.0613 68.1393 18.299V36.6766Z" fill="white"/>
<path d="M76.7165 36.6766C76.7165 36.9144 76.9084 37.1071 77.1452 37.1071H80.8503C81.0871 37.1071 81.2791 36.9144 81.2791 36.6766V34.3205C81.9255 36.1146 84.1687 37.527 87.4006 37.527C92.7997 37.527 96.9821 33.1754 96.9821 27.4878C96.9821 21.8003 92.7997 17.4487 87.4006 17.4487C84.1687 17.4487 81.9255 18.8611 81.2791 20.6551V11.2652C81.2791 10.9891 81.0239 10.7844 80.7557 10.8454L77.0506 11.6871C76.8552 11.7314 76.7165 11.9058 76.7165 12.1069V36.6766ZM80.9369 27.4878C80.9369 24.1288 83.4843 21.6094 86.7922 21.6094C90.0241 21.6094 92.4575 24.1288 92.4575 27.4878C92.4575 30.8469 90.0241 33.3663 86.7922 33.3663C83.4843 33.3663 80.9369 30.8469 80.9369 27.4878Z" fill="white"/>
<path d="M99.3094 27.6787C99.3094 33.748 103.416 37.6796 109.423 37.6796C112.655 37.6796 114.574 37.0386 116.312 35.8598C116.427 35.7813 116.495 35.6494 116.495 35.5092V32.4428C116.495 32.0673 116.036 31.8562 115.726 32.0662C114.534 32.8733 112.58 33.6716 109.613 33.6716C106.191 33.6716 103.986 31.7249 103.834 28.6712H118.122C118.343 28.6712 118.527 28.5036 118.542 28.2829C118.586 27.6385 118.586 27.0298 118.586 27.0298C118.586 21.6858 114.86 17.4106 109.233 17.4106C103.53 17.4106 99.3094 21.3422 99.3094 27.4878V27.6787ZM103.948 25.4266C104.1 23.1363 106.419 21.3041 109.233 21.3041C111.857 21.3041 113.948 23.1745 113.948 25.4266H103.948Z" fill="white"/>
</g>
<defs>
<clipPath id="clip0_1322_1562">
<rect width="141" height="49" fill="white"/>
</clipPath>
</defs>
</svg>
