<svg width="40" height="40" viewBox="0 0 40 40" fill="none" xmlns="http://www.w3.org/2000/svg">
<path d="M31 17.8438C28.8906 17.8906 26.9219 17.2344 25.2344 16.0156V24.4062C25.2344 27.5938 23.2656 30.4062 20.2656 31.5312C17.3125 32.6562 13.9375 31.8125 11.875 29.4219C9.76562 26.9844 9.39062 23.5625 10.8906 20.75C12.3906 17.9844 15.4844 16.4375 18.6719 16.8594V21.0781C17.2188 20.6094 15.625 21.125 14.7344 22.3438C13.8906 23.6094 13.8906 25.25 14.7812 26.4688C15.6719 27.6875 17.2656 28.2031 18.6719 27.7344C20.125 27.2656 21.1094 25.9062 21.1094 24.4062V8H25.2344C25.2344 8.375 25.2344 8.70312 25.3281 9.07812C25.6094 10.625 26.5 11.9844 27.8594 12.8281C28.75 13.4375 29.875 13.7656 31 13.7656V17.8438Z" fill="white"/>
</svg>
