<svg width="88" height="17" viewBox="0 0 88 17" fill="none" xmlns="http://www.w3.org/2000/svg">
<path d="M8.76562 1.66333L10.543 5.30005L14.4531 5.87427C14.7812 5.92896 15.0547 6.14771 15.1641 6.47583C15.2734 6.77661 15.1914 7.13208 14.9453 7.35083L12.1016 10.1672L12.7852 14.1594C12.8398 14.4875 12.7031 14.8157 12.4297 15.0071C12.1562 15.2258 11.8008 15.2258 11.5 15.0891L8 13.2024L4.47266 15.0891C4.19922 15.2258 3.84375 15.2258 3.57031 15.0071C3.29688 14.8157 3.16016 14.4875 3.21484 14.1594L3.87109 10.1672L1.02734 7.35083C0.808594 7.13208 0.726562 6.77661 0.808594 6.47583C0.917969 6.14771 1.19141 5.92896 1.51953 5.87427L5.45703 5.30005L7.20703 1.66333C7.34375 1.36255 7.64453 1.17114 8 1.17114C8.32812 1.17114 8.62891 1.36255 8.76562 1.66333Z" fill="#FFB525"/>
<path d="M26.7656 1.66333L28.543 5.30005L32.4531 5.87427C32.7812 5.92896 33.0547 6.14771 33.1641 6.47583C33.2734 6.77661 33.1914 7.13208 32.9453 7.35083L30.1016 10.1672L30.7852 14.1594C30.8398 14.4875 30.7031 14.8157 30.4297 15.0071C30.1562 15.2258 29.8008 15.2258 29.5 15.0891L26 13.2024L22.4727 15.0891C22.1992 15.2258 21.8438 15.2258 21.5703 15.0071C21.2969 14.8157 21.1602 14.4875 21.2148 14.1594L21.8711 10.1672L19.0273 7.35083C18.8086 7.13208 18.7266 6.77661 18.8086 6.47583C18.918 6.14771 19.1914 5.92896 19.5195 5.87427L23.457 5.30005L25.207 1.66333C25.3438 1.36255 25.6445 1.17114 26 1.17114C26.3281 1.17114 26.6289 1.36255 26.7656 1.66333Z" fill="#FFB525"/>
<path d="M44.7656 1.66333L46.543 5.30005L50.4531 5.87427C50.7812 5.92896 51.0547 6.14771 51.1641 6.47583C51.2734 6.77661 51.1914 7.13208 50.9453 7.35083L48.1016 10.1672L48.7852 14.1594C48.8398 14.4875 48.7031 14.8157 48.4297 15.0071C48.1562 15.2258 47.8008 15.2258 47.5 15.0891L44 13.2024L40.4727 15.0891C40.1992 15.2258 39.8438 15.2258 39.5703 15.0071C39.2969 14.8157 39.1602 14.4875 39.2148 14.1594L39.8711 10.1672L37.0273 7.35083C36.8086 7.13208 36.7266 6.77661 36.8086 6.47583C36.918 6.14771 37.1914 5.92896 37.5195 5.87427L41.457 5.30005L43.207 1.66333C43.3438 1.36255 43.6445 1.17114 44 1.17114C44.3281 1.17114 44.6289 1.36255 44.7656 1.66333Z" fill="#FFB525"/>
<path d="M62.7656 1.66333L64.543 5.30005L68.4531 5.87427C68.7812 5.92896 69.0547 6.14771 69.1641 6.47583C69.2734 6.77661 69.1914 7.13208 68.9453 7.35083L66.1016 10.1672L66.7852 14.1594C66.8398 14.4875 66.7031 14.8157 66.4297 15.0071C66.1562 15.2258 65.8008 15.2258 65.5 15.0891L62 13.2024L58.4727 15.0891C58.1992 15.2258 57.8438 15.2258 57.5703 15.0071C57.2969 14.8157 57.1602 14.4875 57.2148 14.1594L57.8711 10.1672L55.0273 7.35083C54.8086 7.13208 54.7266 6.77661 54.8086 6.47583C54.918 6.14771 55.1914 5.92896 55.5195 5.87427L59.457 5.30005L61.207 1.66333C61.3438 1.36255 61.6445 1.17114 62 1.17114C62.3281 1.17114 62.6289 1.36255 62.7656 1.66333Z" fill="#FFB525"/>
<path d="M80.7656 1.66333L82.543 5.30005L86.4531 5.87427C86.7812 5.92896 87.0547 6.14771 87.1641 6.47583C87.2734 6.77661 87.1914 7.13208 86.9453 7.35083L84.1016 10.1672L84.7852 14.1594C84.8398 14.4875 84.7031 14.8157 84.4297 15.0071C84.1562 15.2258 83.8008 15.2258 83.5 15.0891L80 13.2024L76.4727 15.0891C76.1992 15.2258 75.8438 15.2258 75.5703 15.0071C75.2969 14.8157 75.1602 14.4875 75.2148 14.1594L75.8711 10.1672L73.0273 7.35083C72.8086 7.13208 72.7266 6.77661 72.8086 6.47583C72.918 6.14771 73.1914 5.92896 73.5195 5.87427L77.457 5.30005L79.207 1.66333C79.3438 1.36255 79.6445 1.17114 80 1.17114C80.3281 1.17114 80.6289 1.36255 80.7656 1.66333Z" fill="#FFB525"/>
</svg>
