<svg width="40" height="40" viewBox="0 0 40 40" fill="none" xmlns="http://www.w3.org/2000/svg">
<path d="M29.5 9.5C30.2969 9.5 31 10.2031 31 11.0469V29C31 29.8438 30.2969 30.5 29.5 30.5H11.4531C10.6562 30.5 10 29.8438 10 29V11.0469C10 10.2031 10.6562 9.5 11.4531 9.5H29.5ZM16.3281 27.5V17.5156H13.2344V27.5H16.3281ZM14.7812 16.1094C15.7656 16.1094 16.5625 15.3125 16.5625 14.3281C16.5625 13.3438 15.7656 12.5 14.7812 12.5C13.75 12.5 12.9531 13.3438 12.9531 14.3281C12.9531 15.3125 13.75 16.1094 14.7812 16.1094ZM28 27.5V22.0156C28 19.3438 27.3906 17.2344 24.25 17.2344C22.75 17.2344 21.7188 18.0781 21.2969 18.875H21.25V17.5156H18.2969V27.5H21.3906V22.5781C21.3906 21.2656 21.625 20 23.2656 20C24.8594 20 24.8594 21.5 24.8594 22.625V27.5H28Z" fill="white"/>
</svg>
