<svg width="40" height="40" viewBox="0 0 40 40" fill="none" xmlns="http://www.w3.org/2000/svg">
<path d="M29.5156 15.125C29.5156 15.3594 29.5156 15.5469 29.5156 15.7812C29.5156 22.2969 24.5938 29.75 15.5469 29.75C12.7344 29.75 10.1562 28.9531 8 27.5469C8.375 27.5938 8.75 27.6406 9.17188 27.6406C11.4688 27.6406 13.5781 26.8438 15.2656 25.5312C13.1094 25.4844 11.2812 24.0781 10.6719 22.1094C11 22.1562 11.2812 22.2031 11.6094 22.2031C12.0312 22.2031 12.5 22.1094 12.875 22.0156C10.625 21.5469 8.9375 19.5781 8.9375 17.1875V17.1406C9.59375 17.5156 10.3906 17.7031 11.1875 17.75C9.82812 16.8594 8.98438 15.3594 8.98438 13.6719C8.98438 12.7344 9.21875 11.8906 9.64062 11.1875C12.0781 14.1406 15.7344 16.1094 19.8125 16.3438C19.7188 15.9688 19.6719 15.5938 19.6719 15.2188C19.6719 12.5 21.875 10.2969 24.5938 10.2969C26 10.2969 27.2656 10.8594 28.2031 11.8438C29.2812 11.6094 30.3594 11.1875 31.2969 10.625C30.9219 11.7969 30.1719 12.7344 29.1406 13.3438C30.125 13.25 31.1094 12.9688 31.9531 12.5938C31.2969 13.5781 30.4531 14.4219 29.5156 15.125Z" fill="white"/>
</svg>
