<svg width="40" height="40" viewBox="0 0 40 40" fill="none" xmlns="http://www.w3.org/2000/svg">
<path d="M32.7344 13.8594C33.2969 15.8281 33.2969 20.0469 33.2969 20.0469C33.2969 20.0469 33.2969 24.2188 32.7344 26.2344C32.4531 27.3594 31.5625 28.2031 30.4844 28.4844C28.4688 29 20.5 29 20.5 29C20.5 29 12.4844 29 10.4688 28.4844C9.39062 28.2031 8.5 27.3594 8.21875 26.2344C7.65625 24.2188 7.65625 20.0469 7.65625 20.0469C7.65625 20.0469 7.65625 15.8281 8.21875 13.8594C8.5 12.7344 9.39062 11.8438 10.4688 11.5625C12.4844 11 20.5 11 20.5 11C20.5 11 28.4688 11 30.4844 11.5625C31.5625 11.8438 32.4531 12.7344 32.7344 13.8594ZM17.875 23.8438L24.5312 20.0469L17.875 16.25V23.8438Z" fill="white"/>
</svg>
