<svg width="93" height="32" viewBox="0 0 93 32" fill="none" xmlns="http://www.w3.org/2000/svg">
<g clip-path="url(#clip0_1354_5649)">
<path fill-rule="evenodd" clip-rule="evenodd" d="M77.3523 1.67214C77.2235 1.70113 77.132 1.81496 77.132 1.94631V4.61834C77.132 4.79861 77.3003 4.93229 77.4772 4.8925L84.88 3.22741C85.0089 3.19842 85.1004 3.08459 85.1004 2.95324V0.281213C85.1004 0.100938 84.9321 -0.0327376 84.7552 0.00704876L77.3523 1.67214ZM77.132 6.61579C77.132 6.48444 77.2235 6.37061 77.3523 6.34162L92.7236 2.88423C92.9005 2.84444 93.0688 2.97811 93.0688 3.15839V5.83042C93.0688 5.96176 92.9773 6.0756 92.8485 6.10459L77.4772 9.56198C77.3003 9.60177 77.132 9.46809 77.132 9.28782V6.61579ZM85.1005 9.49321C85.1005 9.36187 85.192 9.24803 85.3208 9.21905L92.7237 7.55395C92.9006 7.51417 93.0689 7.64784 93.0689 7.82812V10.5001C93.0689 10.6315 92.9774 10.7453 92.8485 10.7743L85.4457 12.4394C85.2688 12.4792 85.1005 12.3455 85.1005 12.1652V9.49321Z" fill="#FF5466"/>
<path d="M8.17578 22.6181C8.17578 22.7087 8.21953 22.794 8.29445 22.8456C9.78158 23.8703 11.6743 24.5324 14.019 24.5324C18.1569 24.5324 20.3136 22.2888 20.3136 19.5966C20.3136 16.8046 18.6835 15.4335 15.5488 14.0625C13.5927 13.19 11.787 12.5917 11.787 11.1957C11.787 10.1487 12.7902 9.40088 14.5958 9.40088C16.1052 9.40088 17.2623 9.80634 18.2745 10.538C18.4704 10.6797 18.7588 10.5468 18.7588 10.3059V7.90429C18.7588 7.81128 18.7127 7.72392 18.6342 7.67337C17.4798 6.93049 16.0936 6.55905 14.5206 6.55905C11.1601 6.55905 8.65227 8.32896 8.65227 11.1957C8.65227 13.9129 10.6836 15.2341 13.2917 16.331C16.0252 17.4777 17.2039 18.051 17.2039 19.5966C17.2039 20.6934 16.0754 21.7404 13.8434 21.7404C11.7103 21.7404 10.0103 20.9967 8.67367 19.8735C8.48221 19.7127 8.17578 19.8429 8.17578 20.0921V22.6181Z" fill="#231842"/>
<path d="M21.9825 17.9264C21.9825 21.7653 24.9668 24.5822 28.879 24.5822C30.3823 24.5822 31.7918 24.1861 32.8356 23.3938C32.9034 23.3423 32.9416 23.2616 32.9416 23.1768V20.9877C32.9416 20.7388 32.6335 20.6065 32.4356 20.7592C31.4059 21.5539 30.2578 21.8651 29.0545 21.8651C26.6972 21.8651 24.9668 20.1949 24.9668 17.9264C24.9668 15.6579 26.6972 13.9877 29.0545 13.9877C30.2594 13.9877 31.409 14.318 32.4398 15.1046C32.6372 15.2552 32.9416 15.1228 32.9416 14.8754V12.6785C32.9416 12.5922 32.9021 12.5104 32.8324 12.4589C31.789 11.6891 30.3808 11.2705 28.879 11.2705C24.9668 11.2705 21.9825 14.0874 21.9825 17.9264Z" fill="#231842"/>
<path d="M35.1712 23.9522C35.1712 24.1074 35.2978 24.2332 35.454 24.2332H37.8727C38.0289 24.2332 38.1555 24.1074 38.1555 23.9522V17.6272C38.1555 15.5582 39.4847 14.2619 41.5662 14.2619C41.8962 14.2619 42.2022 14.2858 42.4758 14.3254C42.654 14.3512 42.8201 14.2178 42.8201 14.0388V11.7253C42.8201 11.5913 42.7245 11.478 42.5906 11.463C42.3964 11.4413 42.1301 11.4201 41.9173 11.4201C40.1116 11.4201 38.7574 12.2427 38.1555 13.539V11.9505C38.1555 11.7952 38.0289 11.6694 37.8727 11.6694H35.454C35.2978 11.6694 35.1712 11.7952 35.1712 11.9505V23.9522Z" fill="#231842"/>
<path d="M46.4476 10.1986C47.4006 10.1986 48.2281 9.42581 48.2281 8.42868C48.2281 7.43154 47.4006 6.65877 46.4476 6.65877C45.4695 6.65877 44.642 7.43154 44.642 8.42868C44.642 9.42581 45.4695 10.1986 46.4476 10.1986ZM44.9429 23.9522C44.9429 24.1074 45.0695 24.2332 45.2257 24.2332H47.6695C47.8257 24.2332 47.9523 24.1074 47.9523 23.9522V11.9505C47.9523 11.7952 47.8257 11.6694 47.6695 11.6694H45.2257C45.0695 11.6694 44.9429 11.7952 44.9429 11.9505V23.9522Z" fill="#231842"/>
<path d="M50.6002 23.9522C50.6002 24.1074 50.7268 24.2332 50.883 24.2332H53.3268C53.4829 24.2332 53.6096 24.1074 53.6096 23.9522V22.4135C54.0359 23.5851 55.5155 24.5075 57.6471 24.5075C61.2082 24.5075 63.9668 21.6656 63.9668 17.9513C63.9668 14.237 61.2082 11.3951 57.6471 11.3951C55.5155 11.3951 54.0359 12.3175 53.6096 13.4891V7.35691C53.6096 7.17663 53.4412 7.04296 53.2644 7.08274L50.8205 7.63242C50.6917 7.66141 50.6002 7.77524 50.6002 7.90659V23.9522ZM53.3839 17.9513C53.3839 15.7576 55.0641 14.1123 57.2459 14.1123C59.3775 14.1123 60.9825 15.7576 60.9825 17.9513C60.9825 20.145 59.3775 21.7903 57.2459 21.7903C55.0641 21.7903 53.3839 20.145 53.3839 17.9513Z" fill="#231842"/>
<path d="M65.5019 18.0759C65.5019 22.0396 68.2103 24.6072 72.1727 24.6072C74.3042 24.6072 75.5702 24.1886 76.7162 23.4187C76.7925 23.3675 76.8372 23.2813 76.8372 23.1897V21.1872C76.8372 20.942 76.5341 20.8041 76.3296 20.9412C75.5437 21.4683 74.2546 21.9897 72.2981 21.9897C70.041 21.9897 68.5865 20.7183 68.4862 18.7241H77.9104C78.0557 18.7241 78.1776 18.6146 78.1875 18.4706C78.2165 18.0497 78.2165 17.6522 78.2165 17.6522C78.2165 14.1622 75.7589 11.3702 72.0473 11.3702C68.2856 11.3702 65.5019 13.9378 65.5019 17.9513V18.0759ZM68.5614 16.6052C68.6617 15.1095 70.1915 13.9129 72.0473 13.9129C73.7777 13.9129 75.157 15.1344 75.157 16.6052H68.5614Z" fill="#231842"/>
</g>
<defs>
<clipPath id="clip0_1354_5649">
<rect width="93" height="32" fill="white"/>
</clipPath>
</defs>
</svg>
